<svg width="18" height="18" viewBox="0 0 18 18" fill="none" xmlns="http://www.w3.org/2000/svg">
<path d="M11.231 8.25293C11.6452 8.25293 11.981 8.58872 11.981 9.00293C11.981 9.41714 11.6452 9.75293 11.231 9.75293H6.73096C6.31674 9.75293 5.98096 9.41714 5.98096 9.00293C5.98096 8.58872 6.31674 8.25293 6.73096 8.25293H11.231Z" fill="#F4785E"/>
<path fill-rule="evenodd" clip-rule="evenodd" d="M13.125 1.125C13.3413 1.125 13.5473 1.21859 13.6897 1.38135L16.3147 4.38135L16.3623 4.44141C16.4876 4.61783 16.5261 4.83397 16.4824 5.03467C16.4926 5.10509 16.5 5.17677 16.5 5.25V15C16.5 15.8284 15.8284 16.5 15 16.5H3C2.17157 16.5 1.5 15.8284 1.5 15V5.25C1.5 5.17603 1.50724 5.10358 1.51758 5.03247C1.4697 4.80894 1.52336 4.56659 1.6853 4.38135L4.3103 1.38135L4.3667 1.32349C4.50446 1.19651 4.6857 1.125 4.875 1.125H13.125ZM3 15H15V5.25H3V15ZM4.2312 3.75H13.7688L12.7844 2.625H5.21558L4.2312 3.75Z" fill="#F4785E"/>
</svg>
