<svg width="12" height="12" viewBox="0 0 12 12" fill="none" xmlns="http://www.w3.org/2000/svg">
<g clip-path="url(#clip0_29945_112772)">
<path d="M6.00244 2.5C6.2785 2.5001 6.50244 2.72393 6.50244 3L6.50195 5.79492L8.47559 7.76855C8.67066 7.96379 8.67068 8.28036 8.47559 8.47559C8.28032 8.67085 7.96333 8.67085 7.76807 8.47559L5.64844 6.35596C5.55466 6.26218 5.50194 6.13458 5.50195 6.00195L5.50244 3C5.50247 2.72386 5.7263 2.49997 6.00244 2.5Z" fill="#F4785E"/>
<path fill-rule="evenodd" clip-rule="evenodd" d="M6 0.5C9.03757 0.5 11.5 2.96243 11.5 6C11.5 9.03757 9.03757 11.5 6 11.5C2.96243 11.5 0.5 9.03757 0.5 6C0.5 2.96243 2.96243 0.5 6 0.5ZM6 1.5C3.51472 1.5 1.5 3.51472 1.5 6C1.5 8.48528 3.51472 10.5 6 10.5C8.48528 10.5 10.5 8.48528 10.5 6C10.5 3.51472 8.48528 1.5 6 1.5Z" fill="#F4785E"/>
</g>
<defs>
<clipPath id="clip0_29945_112772">
<rect width="12" height="12" fill="white"/>
</clipPath>
</defs>
</svg>
