<svg width="16" height="16" viewBox="0 0 16 16" fill="none" xmlns="http://www.w3.org/2000/svg">
<path d="M8.00781 2C8.376 2 8.67448 2.29848 8.67448 2.66667V7.33333H13.3333L13.4017 7.33659C13.7378 7.37081 14 7.65488 14 8C14 8.34512 13.7378 8.62919 13.4017 8.66341L13.3333 8.66667H8.67448V13.3333C8.67448 13.7015 8.376 14 8.00781 14C7.63962 14 7.34115 13.7015 7.34115 13.3333V8.66667H2.66667C2.29848 8.66667 2 8.36819 2 8C2 7.63181 2.29848 7.33333 2.66667 7.33333H7.34115V2.66667C7.34115 2.29848 7.63962 2 8.00781 2Z" fill="white"/>
</svg>
