<svg width="16" height="16" viewBox="0 0 16 16" fill="none" xmlns="http://www.w3.org/2000/svg">
<path fill-rule="evenodd" clip-rule="evenodd" d="M7.01921 6.07861C7.23595 5.96268 7.49892 5.97546 7.70345 6.11182L9.70345 7.44515L9.76921 7.49528C9.91488 7.62101 10.0003 7.80472 10.0003 7.99984C10.0003 8.19495 9.91488 8.37867 9.76921 8.50439L9.70345 8.55452L7.70345 9.88786C7.49892 10.0242 7.23595 10.037 7.01921 9.92106C6.80243 9.80505 6.66699 9.57903 6.66699 9.33317V6.6665L6.6735 6.57536C6.70239 6.36586 6.82956 6.18011 7.01921 6.07861ZM8.00033 8.08708L8.13184 7.99984L8.00033 7.91195V8.08708Z" fill="#9966D0"/>
<path fill-rule="evenodd" clip-rule="evenodd" d="M12.402 1.66976C12.7381 1.70398 13.0003 1.98805 13.0003 2.33317V2.99984H14.667L14.7354 3.00309C15.0714 3.03731 15.3337 3.32139 15.3337 3.6665V12.3332C15.3337 12.7014 15.0352 12.9998 14.667 12.9998H13.0003V13.6665C13.0003 14.0347 12.7018 14.3332 12.3337 14.3332H3.66699C3.2988 14.3332 3.00033 14.0347 3.00033 13.6665V12.9998H1.33366C0.965469 12.9998 0.666992 12.7014 0.666992 12.3332V3.6665L0.670247 3.59814C0.704468 3.26206 0.988541 2.99984 1.33366 2.99984H3.00033V2.33317L3.00358 2.26481C3.0378 1.92872 3.32187 1.6665 3.66699 1.6665H12.3337L12.402 1.66976ZM4.33366 12.9998H11.667V2.99984H4.33366V12.9998ZM2.00033 11.6665H3.00033V4.33317H2.00033V11.6665ZM13.0003 11.6665H14.0003V4.33317H13.0003V11.6665Z" fill="#9966D0"/>
</svg>
