<svg width="14" height="14" viewBox="0 0 14 14" fill="none" xmlns="http://www.w3.org/2000/svg">
<path d="M4.22917 3.79167C4.79295 3.79167 5.25 4.24872 5.25 4.8125C5.25 5.37628 4.79295 5.83333 4.22917 5.83333C3.66538 5.83333 3.20833 5.37628 3.20833 4.8125C3.20833 4.24872 3.66538 3.79167 4.22917 3.79167Z" fill="#575F6E"/>
<path fill-rule="evenodd" clip-rule="evenodd" d="M11.9583 1.75C12.6027 1.75 13.125 2.27234 13.125 2.91667V11.0833C13.125 11.1235 13.1227 11.1632 13.1187 11.2024C13.1147 11.2417 13.1089 11.2805 13.1011 11.3186C13.0466 11.5842 12.9021 11.817 12.7006 11.9834C12.6429 12.031 12.5806 12.0733 12.5143 12.1093C12.4482 12.1452 12.3783 12.1749 12.3053 12.1976C12.2321 12.2203 12.1559 12.2358 12.0774 12.2437C12.0382 12.2477 11.9985 12.25 11.9583 12.25H2.04167C1.92086 12.25 1.80433 12.2317 1.69474 12.1976C1.62173 12.1749 1.55176 12.1452 1.48568 12.1093C1.41943 12.0733 1.35711 12.031 1.2994 11.9834C1.1842 11.8883 1.08752 11.7715 1.01571 11.6393C0.997762 11.6063 0.981463 11.5722 0.966715 11.5374C0.937231 11.4676 0.914467 11.3945 0.898926 11.3186C0.891124 11.2805 0.885256 11.2417 0.881266 11.2024C0.877293 11.1632 0.875004 11.1235 0.875 11.0833V2.91667C0.875 2.27233 1.39733 1.75 2.04167 1.75H11.9583ZM6.27596 8.54606C6.07131 8.78476 5.71429 8.81878 5.46875 8.6224L4.41772 7.78158L2.04167 10.1582V11.0833H11.9583V10.2043L7.6665 6.9231L6.27596 8.54606ZM2.04167 8.50846L3.96256 6.58756L4.00358 6.55054C4.21437 6.37605 4.52201 6.37021 4.73958 6.54427L5.75757 7.35889L7.14071 5.74561L7.18001 5.70345C7.38535 5.5066 7.70721 5.48564 7.93766 5.66186L11.9583 8.73633V2.91667H2.04167V8.50846Z" fill="#575F6E"/>
</svg>
