<svg width="12" height="12" viewBox="0 0 12 12" fill="none" xmlns="http://www.w3.org/2000/svg">
<path fill-rule="evenodd" clip-rule="evenodd" d="M5.68467 0.612658C5.88105 0.452494 6.17056 0.463818 6.35362 0.646838L7.92637 2.21959L9.4293 2.00524L9.47715 2.00084C9.71503 1.9897 9.93121 2.14947 9.98692 2.38561V2.38707C9.98692 2.38707 9.98766 2.38851 9.9879 2.38951C9.98844 2.39189 9.98887 2.39554 9.98985 2.39977C9.99187 2.4085 9.99503 2.42136 9.99864 2.43736C10.0059 2.46944 10.0163 2.5155 10.0284 2.57262C10.0527 2.68683 10.0849 2.8465 10.1173 3.02867C10.1807 3.38504 10.2501 3.85886 10.2501 4.25035C10.25 6.84494 8.23636 8.2382 6.5001 8.46617V11.0004C6.50004 11.2764 6.27621 11.5004 6.0001 11.5004C5.72409 11.5002 5.50017 11.2764 5.5001 11.0004V8.46617C3.76394 8.23804 1.75016 6.84475 1.7501 4.25035C1.7501 3.85889 1.8195 3.38504 1.88292 3.02867C1.91533 2.84654 1.94748 2.68682 1.97178 2.57262C1.98393 2.51555 1.99434 2.46944 2.00157 2.43736C2.00517 2.42141 2.00834 2.4085 2.01036 2.39977C2.01132 2.39559 2.01177 2.39189 2.01231 2.38951L2.01329 2.38707V2.38561L2.02647 2.33922C2.10293 2.11381 2.33083 1.97103 2.57091 2.00524L4.07335 2.21959L5.64659 0.646838L5.68467 0.612658ZM4.60362 3.10387C4.49235 3.21504 4.33503 3.26772 4.1793 3.24547L2.89512 3.06188C2.88652 3.10718 2.87607 3.15462 2.86729 3.20397C2.80572 3.54997 2.7501 3.95156 2.7501 4.25035C2.75017 6.40146 4.57265 7.50025 6.0001 7.50035C7.42759 7.50035 9.25004 6.40156 9.2501 4.25035C9.2501 3.95154 9.19449 3.54998 9.13292 3.20397C9.12412 3.15456 9.11321 3.10723 9.1046 3.06188L7.82091 3.24547C7.66518 3.26765 7.50782 3.2151 7.39659 3.10387L6.0001 1.70738L4.60362 3.10387Z" fill="#F4785E"/>
<path d="M10.1798 7.61608C10.3919 7.43931 10.7076 7.46797 10.8844 7.68004C11.0611 7.89216 11.0325 8.20784 10.8204 8.38463L7.82042 10.8846C7.6083 11.0612 7.29257 11.0327 7.11583 10.8207C6.93913 10.6086 6.96786 10.2929 7.17979 10.1161L10.1798 7.61608Z" fill="#F4785E"/>
<path d="M1.11583 7.68004C1.28155 7.48123 1.56934 7.44365 1.7794 7.58531L1.82042 7.61608L4.82042 10.1161L4.85801 10.1507C5.03532 10.3318 5.05012 10.6218 4.88438 10.8207C4.71862 11.0194 4.43081 11.0571 4.22081 10.9154L4.17979 10.8846L1.17979 8.38463L1.14219 8.34996C0.964973 8.16893 0.95025 7.8789 1.11583 7.68004Z" fill="#F4785E"/>
</svg>
