<svg width="14" height="14" viewBox="0 0 14 14" fill="none" xmlns="http://www.w3.org/2000/svg">
<path fill-rule="evenodd" clip-rule="evenodd" d="M4.66667 1.4585C5.62085 1.4585 6.46788 1.91679 7 2.62516C7.53212 1.91679 8.37915 1.4585 9.33333 1.4585H12.5417L12.6015 1.46134C12.8956 1.49129 13.125 1.73985 13.125 2.04183V10.5002C13.125 10.8223 12.8638 11.0835 12.5417 11.0835H8.75C8.10567 11.0835 7.58333 11.6058 7.58333 12.2502C7.58333 12.5723 7.32217 12.8335 7 12.8335C6.67783 12.8335 6.41667 12.5723 6.41667 12.2502C6.41667 11.6058 5.89433 11.0835 5.25 11.0835H1.45833C1.13617 11.0835 0.875 10.8223 0.875 10.5002V2.04183L0.877848 1.98201C0.907792 1.68794 1.15636 1.4585 1.45833 1.4585H4.66667ZM2.04167 9.91683H5.25C5.67511 9.91683 6.07341 10.031 6.41667 10.2296V4.37516C6.41667 3.40866 5.63317 2.62516 4.66667 2.62516H2.04167V9.91683ZM9.33333 2.62516C8.36683 2.62516 7.58333 3.40866 7.58333 4.37516V10.2296C7.92659 10.031 8.32489 9.91683 8.75 9.91683H11.9583V2.62516H9.33333Z" fill="white"/>
</svg>
