<svg width="18" height="18" viewBox="0 0 18 18" fill="none" xmlns="http://www.w3.org/2000/svg">
<path fill-rule="evenodd" clip-rule="evenodd" d="M8.99854 6.11865C9.28383 6.11818 9.54478 6.27981 9.67163 6.5354L10.5967 8.39941L12.6614 8.70044L12.7646 8.72314C12.9995 8.7923 13.1891 8.97316 13.2664 9.21021C13.3546 9.48106 13.2815 9.77906 13.0781 9.97852L11.5752 11.4492L11.9319 13.4897C11.9811 13.772 11.865 14.0577 11.6331 14.2258C11.4011 14.3939 11.0934 14.4153 10.8406 14.2808L9 13.2993L7.16016 14.2808C6.90717 14.4156 6.59905 14.394 6.36694 14.2258C6.13484 14.0575 6.01927 13.7714 6.06885 13.489L6.427 11.4492L4.92334 9.97925C4.71932 9.77979 4.64596 9.48148 4.73438 9.21021C4.82282 8.939 5.05778 8.74139 5.34009 8.70044L7.41431 8.39941L8.3269 6.53833L8.37964 6.44678C8.51757 6.24395 8.74877 6.11929 8.99854 6.11865ZM8.58765 9.41528C8.47873 9.63741 8.267 9.79193 8.02222 9.82764L7.05688 9.9668L7.75854 10.6531C7.93542 10.8261 8.01598 11.0759 7.97314 11.3196L7.81201 12.2322L8.64697 11.7876L8.73193 11.7495C8.93324 11.6725 9.16017 11.6848 9.35303 11.7876L10.1902 12.2336L10.0305 11.3188C9.98806 11.0756 10.068 10.8266 10.2444 10.6538L10.946 9.96606L9.9917 9.8269C9.77879 9.79578 9.59078 9.67527 9.47388 9.49805L9.42847 9.41821L9.00439 8.56421L8.58765 9.41528Z" fill="#F4785E"/>
<path d="M11.2083 3.99097C11.5864 4.02943 11.8821 4.34902 11.8821 4.7373C11.8821 5.12559 11.5864 5.44518 11.2083 5.48364L11.1321 5.4873H6.86865C6.45444 5.4873 6.11865 5.15152 6.11865 4.7373C6.11865 4.32309 6.45444 3.9873 6.86865 3.9873H11.1321L11.2083 3.99097Z" fill="#F4785E"/>
<path fill-rule="evenodd" clip-rule="evenodd" d="M14.8169 1.50952C15.7623 1.60562 16.5 2.40425 16.5 3.375V14.625C16.5 15.6606 15.6606 16.5 14.625 16.5H3.375C2.40426 16.5 1.60562 15.7623 1.50952 14.8169L1.5 14.625V3.375C1.5 2.33946 2.33947 1.5 3.375 1.5H14.625L14.8169 1.50952ZM3.375 3C3.16789 3 3 3.1679 3 3.375V14.625L3.00732 14.7004C3.04221 14.8714 3.19372 15 3.375 15H14.625C14.8321 15 15 14.8321 15 14.625V3.375C15 3.19371 14.8714 3.04221 14.7004 3.00732L14.625 3H3.375Z" fill="#F4785E"/>
</svg>
