<svg width="14" height="14" viewBox="0 0 14 14" fill="none" xmlns="http://www.w3.org/2000/svg">
<g clip-path="url(#clip0_29938_108861)">
<path d="M7.00252 2.91683C7.32459 2.91695 7.58586 3.17808 7.58586 3.50016L7.58529 6.7609L9.88786 9.06348C10.1154 9.29125 10.1155 9.66058 9.88786 9.88835C9.66005 10.1162 9.29022 10.1162 9.06242 9.88835L6.58952 7.41545C6.48011 7.30604 6.4186 7.15717 6.41862 7.00244L6.41919 3.50016C6.41922 3.178 6.68036 2.9168 7.00252 2.91683Z" fill="#818997"/>
<path fill-rule="evenodd" clip-rule="evenodd" d="M6.99967 0.583496C10.5435 0.583496 13.4163 3.45633 13.4163 7.00016C13.4163 10.544 10.5435 13.4168 6.99967 13.4168C3.45585 13.4168 0.583008 10.544 0.583008 7.00016C0.583008 3.45633 3.45585 0.583496 6.99967 0.583496ZM6.99967 1.75016C4.10018 1.75016 1.74967 4.10067 1.74967 7.00016C1.74967 9.89966 4.10018 12.2502 6.99967 12.2502C9.89917 12.2502 12.2497 9.89966 12.2497 7.00016C12.2497 4.10067 9.89917 1.75016 6.99967 1.75016Z" fill="#818997"/>
</g>
<defs>
<clipPath id="clip0_29938_108861">
<rect width="14" height="14" fill="white"/>
</clipPath>
</defs>
</svg>
