<svg width="16" height="16" viewBox="0 0 16 16" fill="none" xmlns="http://www.w3.org/2000/svg">
<path d="M4.83333 4.33333C5.47766 4.33333 6 4.85568 6 5.5C6 6.14432 5.47766 6.66667 4.83333 6.66667C4.18901 6.66667 3.66667 6.14432 3.66667 5.5C3.66667 4.85568 4.18901 4.33333 4.83333 4.33333Z" fill="#4482E5"/>
<path fill-rule="evenodd" clip-rule="evenodd" d="M13.6667 2C14.4031 2 15 2.59696 15 3.33333V12.6667C15 12.7126 14.9974 12.758 14.9928 12.8027C14.9883 12.8477 14.9816 12.892 14.9727 12.9355C14.9105 13.2391 14.7453 13.5052 14.515 13.6953C14.449 13.7498 14.3778 13.7981 14.3021 13.8392C14.2266 13.8802 14.1466 13.9142 14.0632 13.9401C13.9796 13.9661 13.8925 13.9837 13.8027 13.9928C13.758 13.9974 13.7126 14 13.6667 14H2.33333C2.19527 14 2.0621 13.9791 1.93685 13.9401C1.8534 13.9142 1.77344 13.8802 1.69792 13.8392C1.62221 13.7981 1.55098 13.7498 1.48503 13.6953C1.35338 13.5866 1.24288 13.4532 1.16081 13.3021C1.1403 13.2643 1.12167 13.2254 1.10482 13.1855C1.07112 13.1059 1.0451 13.0222 1.02734 12.9355C1.01843 12.892 1.01172 12.8477 1.00716 12.8027C1.00262 12.758 1 12.7126 1 12.6667V3.33333C1 2.59695 1.59695 2 2.33333 2H13.6667ZM7.17253 9.76693C6.93864 10.0397 6.53062 10.0786 6.25 9.85417L5.04883 8.89323L2.33333 11.6094V12.6667H13.6667V11.6621L8.76172 7.91211L7.17253 9.76693ZM2.33333 9.72396L4.52865 7.52865L4.57552 7.48633C4.81642 7.28691 5.16801 7.28024 5.41667 7.47917L6.58008 8.41016L8.16081 6.56641L8.20573 6.51823C8.4404 6.29326 8.80824 6.2693 9.07162 6.4707L13.6667 9.98438V3.33333H2.33333V9.72396Z" fill="#4482E5"/>
</svg>
