<svg width="14" height="14" viewBox="0 0 14 14" fill="none" xmlns="http://www.w3.org/2000/svg">
<path d="M9.91651 8.13704C10.1459 8.13704 10.3561 8.26519 10.4611 8.46916C10.5661 8.67316 10.5483 8.91877 10.415 9.10547L7.4983 13.1888C7.38332 13.3497 7.19763 13.4451 6.99985 13.4451C6.80208 13.4451 6.61634 13.3497 6.50139 13.1888L3.58473 9.10547C3.45142 8.91879 3.43364 8.67313 3.53858 8.46916C3.64355 8.26519 3.8538 8.13709 4.08318 8.13704H9.91651Z" fill="#818997"/>
<path d="M9.91651 8.13704C10.1459 8.13704 10.3561 8.26519 10.4611 8.46916C10.5661 8.67316 10.5483 8.91877 10.415 9.10547L7.4983 13.1888C7.38332 13.3497 7.19763 13.4451 6.99985 13.4451C6.80208 13.4451 6.61634 13.3497 6.50139 13.1888L3.58473 9.10547C3.45142 8.91879 3.43364 8.67313 3.53858 8.46916C3.64355 8.26519 3.8538 8.13709 4.08318 8.13704H9.91651Z" fill="#F4785E"/>
<path d="M6.99985 0.553711C7.19763 0.553711 7.38332 0.649131 7.4983 0.810059L10.415 4.89339C10.5483 5.08009 10.5661 5.3257 10.4611 5.5297C10.3561 5.73367 10.1459 5.86182 9.91651 5.86182H4.08318C3.8538 5.86177 3.64355 5.73367 3.53858 5.5297C3.43364 5.32573 3.45142 5.08007 3.58473 4.89339L6.50139 0.810059L6.54753 0.753092C6.66278 0.62686 6.8267 0.553745 6.99985 0.553711Z" fill="#818997"/>
<path d="M6.99985 0.553711C7.19763 0.553711 7.38332 0.649131 7.4983 0.810059L10.415 4.89339C10.5483 5.08009 10.5661 5.3257 10.4611 5.5297C10.3561 5.73367 10.1459 5.86182 9.91651 5.86182H4.08318C3.8538 5.86177 3.64355 5.73367 3.53858 5.5297C3.43364 5.32573 3.45142 5.08007 3.58473 4.89339L6.50139 0.810059L6.54753 0.753092C6.66278 0.62686 6.8267 0.553745 6.99985 0.553711Z" fill="#F4785E"/>
</svg>
