<svg width="12" height="12" viewBox="0 0 12 12" fill="none" xmlns="http://www.w3.org/2000/svg">
<g clip-path="url(#clip0_30342_5584)">
<path d="M6 0.5C9.03757 0.5 11.5 2.96243 11.5 6C11.5 9.03757 9.03757 11.5 6 11.5C2.96243 11.5 0.5 9.03757 0.5 6C0.5 5.72386 0.723858 5.5 1 5.5C1.27614 5.5 1.5 5.72386 1.5 6C1.5 8.48528 3.51472 10.5 6 10.5C8.48528 10.5 10.5 8.48528 10.5 6C10.5 3.51472 8.48528 1.5 6 1.5C5.72386 1.5 5.5 1.27614 5.5 1C5.5 0.723858 5.72386 0.5 6 0.5Z" fill="#4482E5"/>
</g>
<defs>
<clipPath id="clip0_30342_5584">
<rect width="12" height="12" fill="white"/>
</clipPath>
</defs>
</svg>
