<svg width="98" height="6" viewBox="0 0 98 6" fill="none" xmlns="http://www.w3.org/2000/svg">
<path d="M97 3.87598C97.5523 3.87599 98 3.42827 98 2.87599C98 2.3237 97.5523 1.87599 97 1.87598L97 2.87598L97 3.87598ZM96.9 2.87598L96.7186 3.85939L96.8085 3.87598L96.9 3.87598L96.9 2.87598ZM92.89 1.77176L92.4793 2.68352L92.89 1.77176ZM81.93 2.54579L82.5499 3.33047L81.93 2.54579ZM79.19 3.56749L79.1458 4.56651L79.19 3.56749ZM76.45 3.41403L76.5176 2.41632L76.45 3.41403ZM73.71 3.80408L73.3775 2.86096L73.71 3.80408ZM32.61 2.9035L31.9172 2.18237L32.61 2.9035ZM1.05 1.96356L0.0514974 1.90884L0.0484989 1.96356L0.0514975 2.01828L1.05 1.96356ZM1.1 2.87598L1.1 3.87598L2.1563 3.87598L2.0985 2.82126L1.1 2.87598ZM1 1.87598C0.447715 1.87598 4.82823e-08 2.32369 0 2.87598C-4.82823e-08 3.42826 0.447715 3.87598 1 3.87598L1 2.87598L1 1.87598ZM97 2.87598L97 1.87598L96.9 1.87598L96.9 2.87598L96.9 3.87598L97 3.87598L97 2.87598ZM96.9 2.87598L97.0814 1.89258C95.349 1.57297 94.1049 1.22228 93.3007 0.860011L92.89 1.77176L92.4793 2.68352C93.5018 3.14415 94.931 3.5296 96.7186 3.85939L96.9 2.87598ZM92.89 1.77176L93.3007 0.860011C92.6169 0.551937 91.8926 0.512892 91.1836 0.766148C90.5063 1.00809 89.9137 1.49049 89.3912 2.09919L90.15 2.75054L90.9088 3.40189C91.2996 2.94662 91.6204 2.73391 91.8564 2.64959C92.0608 2.57659 92.2498 2.58014 92.4793 2.68352L92.89 1.77176ZM90.15 2.75054L89.3912 2.09919C89.0142 2.53835 88.7635 2.62984 88.6535 2.64386C88.5782 2.65347 88.4013 2.64979 88.083 2.36021L87.41 3.09982L86.737 3.83943C87.3321 4.38096 88.0685 4.73463 88.9064 4.62781C89.7098 4.5254 90.3724 4.0267 90.9088 3.40189L90.15 2.75054ZM87.41 3.09982L88.083 2.36021C87.0706 1.43895 85.9797 0.834501 84.8108 0.668286L84.67 1.65833L84.5292 2.64837C85.187 2.74191 85.9227 3.09845 86.737 3.83943L87.41 3.09982ZM84.67 1.65833L84.8108 0.668286C83.5594 0.490345 82.3786 0.917033 81.3101 1.7611L81.93 2.54579L82.5499 3.33047C83.3081 2.73151 83.9539 2.56655 84.5292 2.64837L84.67 1.65833ZM81.93 2.54579L81.3101 1.7611C80.5323 2.37553 79.8479 2.5956 79.2342 2.56847L79.19 3.56749L79.1458 4.56651C80.3588 4.62014 81.501 4.15907 82.5499 3.33047L81.93 2.54579ZM79.19 3.56749L79.2342 2.56847C78.3287 2.52843 77.4232 2.47772 76.5176 2.41632L76.45 3.41403L76.3823 4.41174C77.3035 4.4742 78.2247 4.52579 79.1458 4.56651L79.19 3.56749ZM76.45 3.41403L76.5176 2.41632C75.4609 2.34466 74.4116 2.49644 73.3775 2.86096L73.71 3.80408L74.0425 4.7472C74.8351 4.46779 75.6125 4.35954 76.3823 4.41174L76.45 3.41403ZM73.71 3.80408L73.3775 2.86096C72.8947 3.03118 72.3504 2.96752 71.6284 2.33594L70.97 3.08861L70.3116 3.84128C71.4163 4.80758 72.6987 5.2209 74.0425 4.7472L73.71 3.80408ZM70.97 3.08861L71.6284 2.33594C70.6098 1.4449 69.512 0.87458 68.3389 0.746107L68.23 1.74016L68.1211 2.73422C68.7747 2.8058 69.5036 3.13444 70.3116 3.84128L70.97 3.08861ZM68.23 1.74016L68.3389 0.746107C67.4201 0.645482 66.5012 0.552531 65.5824 0.467254L65.49 1.46297L65.3976 2.4587C66.3054 2.54295 67.2133 2.63479 68.1211 2.73422L68.23 1.74016ZM65.49 1.46297L65.5824 0.467254C64.418 0.359182 63.2907 0.672352 62.2252 1.32922L62.75 2.18045L63.2748 3.03168C64.036 2.56238 64.7354 2.39724 65.3976 2.4587L65.49 1.46297ZM62.75 2.18045L62.2252 1.32922C61.4329 1.81771 60.6849 2.0511 59.9715 2.07858L60.01 3.07783L60.0485 4.07709C61.1618 4.03422 62.2405 3.66936 63.2748 3.03168L62.75 2.18045ZM60.01 3.07783L59.9715 2.07858C59.0859 2.11268 58.2003 2.10991 57.3147 2.07025L57.27 3.06925L57.2253 4.06825C58.1663 4.11039 59.1074 4.11333 60.0485 4.07709L60.01 3.07783ZM57.27 3.06925L57.3147 2.07025C56.4214 2.03025 55.5279 1.96344 54.6342 1.86978L54.53 2.86433L54.4258 3.85889C55.3588 3.95667 56.292 4.02647 57.2253 4.06825L57.27 3.06925ZM54.53 2.86433L54.6342 1.86978C53.5019 1.75111 52.3925 1.99351 51.3269 2.55037L51.79 3.43666L52.2531 4.32295C53.0142 3.92527 53.7314 3.78612 54.4258 3.85889L54.53 2.86433ZM51.79 3.43666L51.3269 2.55037C51.0223 2.70953 50.7614 2.75348 50.5234 2.72873C50.2791 2.70332 49.9867 2.59756 49.6399 2.34421L49.05 3.15167L48.4601 3.95914C49.0266 4.37305 49.6475 4.64842 50.3165 4.718C50.992 4.78825 51.6444 4.64106 52.2531 4.32295L51.79 3.43666ZM49.05 3.15167L49.6399 2.34421C48.6276 1.6046 47.5704 1.11956 46.4714 0.939851L46.31 1.92674L46.1486 2.91363C46.8763 3.03263 47.6458 3.36422 48.4601 3.95914L49.05 3.15167ZM46.31 1.92674L46.4714 0.939851C45.3718 0.760035 44.2784 0.88656 43.2089 1.30069L43.57 2.23322L43.9311 3.16574C44.6883 2.87253 45.4215 2.79474 46.1486 2.91363L46.31 1.92674ZM43.57 2.23322L43.2089 1.30069C42.4426 1.59742 41.6991 1.68731 40.9634 1.58832L40.83 2.57938L40.6966 3.57045C41.7876 3.71725 42.8707 3.57636 43.9311 3.16574L43.57 2.23322ZM40.83 2.57938L40.9634 1.58832C39.7683 1.42751 38.6161 1.75303 37.5408 2.45974L38.09 3.29542L38.6392 4.1311C39.3906 3.6373 40.065 3.48546 40.6966 3.57045L40.83 2.57938ZM38.09 3.29542L37.5408 2.45974C37.2493 2.65131 37.0365 2.68049 36.8658 2.65533C36.676 2.62735 36.4001 2.51061 36.0395 2.16729L35.35 2.89156L34.6605 3.61584C35.2132 4.14201 35.8507 4.52732 36.5742 4.63396C37.3169 4.74342 38.0174 4.53978 38.6392 4.1311L38.09 3.29542ZM35.35 2.89156L36.0395 2.16729C35.468 1.62322 34.7754 1.23895 33.9756 1.24244C33.1768 1.24592 32.4866 1.6353 31.9172 2.18237L32.61 2.9035L33.3028 3.62463C33.6467 3.29425 33.8698 3.24292 33.9844 3.24242C34.0979 3.24192 34.3187 3.29041 34.6605 3.61584L35.35 2.89156ZM32.61 2.9035L31.9172 2.18237C31.5502 2.53495 31.2582 2.67456 31.045 2.71695C30.8523 2.75527 30.6371 2.73251 30.3607 2.57684L29.87 3.44818L29.3793 4.31952C30.0162 4.67818 30.7144 4.8218 31.435 4.67857C32.1351 4.53939 32.7565 4.1495 33.3028 3.62463L32.61 2.9035ZM29.87 3.44818L30.3607 2.57684C29.2801 1.96831 28.1425 1.71973 26.9788 1.89775L27.13 2.88625L27.2812 3.87475C27.9441 3.77334 28.6333 3.89939 29.3793 4.31952L29.87 3.44818ZM27.13 2.88625L26.9788 1.89775C25.9246 2.05901 24.8927 2.44397 23.8863 3.03086L24.39 3.89472L24.8937 4.75857C25.714 4.28026 26.5088 3.9929 27.2812 3.87475L27.13 2.88625ZM24.39 3.89472L23.8863 3.03086C23.5646 3.21843 23.2897 3.28268 23.0468 3.27617C22.8023 3.26961 22.5195 3.18939 22.1871 2.97776L21.65 3.82127L21.1129 4.66479C21.6939 5.03472 22.3244 5.25752 22.9932 5.27545C23.6636 5.29342 24.3021 5.1036 24.8937 4.75857L24.39 3.89472ZM21.65 3.82127L22.1871 2.97776C21.0662 2.26402 19.855 2.03216 18.6242 2.39932L18.91 3.35759L19.1958 4.31587C19.7917 4.13814 20.4071 4.21541 21.1129 4.66479L21.65 3.82127ZM18.91 3.35759L18.6242 2.39932C17.7143 2.67071 16.8046 2.93663 15.8948 3.19707L16.17 4.15845L16.4452 5.11984C17.3621 4.85735 18.279 4.58936 19.1958 4.31587L18.91 3.35759ZM16.17 4.15845L15.8948 3.19707C15.5187 3.30473 14.978 3.23183 14.1844 2.31979L13.43 2.97622L12.6756 3.63265C13.7087 4.81986 14.9946 5.53511 16.4452 5.11984L16.17 4.15845ZM13.43 2.97622L14.1844 2.31979C13.6457 1.70072 12.9802 1.20963 12.1756 1.11601C11.3394 1.01872 10.6067 1.3773 10.0143 1.92022L10.69 2.65742L11.3657 3.39463C11.6866 3.10046 11.8672 3.09362 11.9444 3.10261C12.0531 3.11525 12.301 3.2021 12.6756 3.63265L13.43 2.97622ZM10.69 2.65742L10.0143 1.92022C9.22989 2.63918 8.57557 2.85513 8.02392 2.81424L7.95 3.81151L7.87608 4.80877C9.15109 4.90328 10.3234 4.34985 11.3657 3.39463L10.69 2.65742ZM7.95 3.81151L8.02392 2.81424C7.43375 2.7705 6.73271 2.44489 5.91936 1.62633L5.21 2.33118L4.50064 3.03602C5.51396 4.05584 6.63959 4.71712 7.87608 4.80877L7.95 3.81151ZM5.21 2.33118L5.91936 1.62633C4.89347 0.593873 3.72612 -0.0441475 2.43398 0.00241769L2.47 1.00177L2.50601 2.00112C3.04054 1.98186 3.69985 2.23011 4.50064 3.03602L5.21 2.33118ZM2.47 1.00177L2.43398 0.00241769C1.89182 0.0219556 1.32835 0.127959 0.869208 0.438944C0.354757 0.787391 0.0839568 1.3165 0.0514974 1.90884L1.05 1.96356L2.0485 2.01827C2.04992 1.99231 2.05337 2.00718 2.03539 2.04015C2.02707 2.0554 2.01705 2.06904 2.00699 2.07991C1.99715 2.09054 1.99048 2.09507 1.99079 2.09486C1.99283 2.09348 2.02614 2.07194 2.11453 2.0494C2.20288 2.02688 2.33034 2.00745 2.50601 2.00112L2.47 1.00177ZM1.05 1.96356L0.0514975 2.01828L0.101498 2.93069L1.1 2.87598L2.0985 2.82126L2.0485 1.90884L1.05 1.96356ZM1.1 2.87598L1.1 1.87598L1 1.87598L1 2.87598L1 3.87598L1.1 3.87598L1.1 2.87598Z" fill="#F4785E"/>
</svg>
