<svg width="74" height="15" viewBox="0 0 74 15" fill="none" xmlns="http://www.w3.org/2000/svg">
<path d="M72.7642 9.99957C73.2612 9.75874 73.4689 9.16061 73.2281 8.6636L69.3036 0.564276C69.0628 0.0672615 68.4647 -0.140424 67.9677 0.100397C67.4706 0.341219 67.263 0.939353 67.5038 1.43637L70.9922 8.63576L63.7928 12.1241C63.2957 12.365 63.0881 12.9631 63.3289 13.4601C63.5697 13.9571 64.1678 14.1648 64.6648 13.924L72.7642 9.99957ZM0.328125 9.09964L0.656137 10.0443C1.09989 9.89023 1.57141 9.73348 2.0696 9.57503L1.76651 8.62207L1.46341 7.66911C0.949612 7.83253 0.461438 7.99479 0.000113308 8.15497L0.328125 9.09964ZM4.68801 7.76054L4.9524 8.72495C5.86973 8.47347 6.84602 8.22226 7.87691 7.97493L7.64361 7.00253L7.41031 6.03012C6.35933 6.28227 5.36229 6.53879 4.42361 6.79612L4.68801 7.76054ZM10.6225 6.33247L10.8285 7.311C11.7799 7.11067 12.767 6.91548 13.7874 6.72759L13.6063 5.74412L13.4252 4.76066C12.3882 4.95162 11.3844 5.15009 10.4164 5.35393L10.6225 6.33247ZM16.6185 5.22727L16.7758 6.21483C17.7471 6.06014 18.7431 5.91301 19.7618 5.77497L19.6276 4.78402L19.4933 3.79308C18.459 3.93322 17.4477 4.08262 16.4612 4.23972L16.6185 5.22727ZM22.6565 4.40897L22.768 5.40273C23.754 5.29208 24.758 5.19058 25.7785 5.09949L25.6895 4.10345L25.6006 3.10741C24.5648 3.19987 23.5458 3.30289 22.545 3.41521L22.6565 4.40897ZM28.7262 3.86714L28.7924 4.86495C29.7869 4.79895 30.7947 4.74335 31.8145 4.6992L31.7713 3.70013L31.728 2.70107C30.6926 2.7459 29.6694 2.80234 28.66 2.86934L28.7262 3.86714ZM34.8214 3.60365L34.8413 4.60345C35.8396 4.58357 36.8476 4.57514 37.8644 4.57906L37.8683 3.57907L37.8722 2.57908C36.8392 2.57509 35.8153 2.58366 34.8015 2.60385L34.8214 3.60365ZM40.9147 3.62774L40.8865 4.62734C41.8866 4.65553 42.8938 4.69617 43.9071 4.75007L43.9602 3.75148L44.0134 2.75289C42.9831 2.69809 41.9593 2.65679 40.9429 2.62813L40.9147 3.62774ZM47.0024 3.95234L46.9237 4.94923C47.9226 5.02814 48.9262 5.12046 49.9336 5.22694L50.0387 4.23248L50.1439 3.23802C49.1185 3.12964 48.0973 3.03571 47.0812 2.95545L47.0024 3.95234ZM53.0666 4.5942L52.9343 5.58542C53.928 5.71799 54.9244 5.86491 55.9226 6.02689L56.0828 5.0398L56.2429 4.05271C55.2258 3.88765 54.2108 3.73799 53.1988 3.60298L53.0666 4.5942ZM59.0834 5.5715L58.8945 6.55349C59.8787 6.74282 60.8637 6.9474 61.8487 7.16791L62.0672 6.19206L62.2857 5.21622C61.2806 4.99121 60.2758 4.78255 59.2723 4.5895L59.0834 5.5715ZM65.0308 6.90398L64.782 7.87253C65.7526 8.12187 66.7223 8.38737 67.6905 8.66968L67.9704 7.70966L68.2504 6.74965C67.2612 6.46119 66.2706 6.19002 65.2796 5.93543L65.0308 6.90398ZM70.8821 8.61139L70.5703 9.56154C71.0475 9.71816 71.5242 9.87906 72.0001 10.0443L72.3281 9.09964L72.6561 8.15497C72.1693 7.98593 71.6819 7.82139 71.1939 7.66125L70.8821 8.61139Z" fill="#333E4E"/>
</svg>
