<svg width="14" height="14" viewBox="0 0 14 14" fill="none" xmlns="http://www.w3.org/2000/svg">
<path d="M4.50968 5.16813C4.70305 4.93631 5.03884 4.89236 5.28385 5.05762L5.33171 5.09351L7.08171 6.55184C7.21461 6.66262 7.29127 6.82715 7.29134 7.00016C7.29134 7.1732 7.21458 7.33766 7.08171 7.44849L5.33171 8.90682C5.08423 9.11305 4.71594 9.07964 4.50968 8.83219C4.30355 8.58472 4.3369 8.2164 4.58431 8.01017L5.79598 7.00016L4.58431 5.99015L4.54045 5.94971C4.33367 5.73844 4.31635 5.40013 4.50968 5.16813Z" fill="#575F6E"/>
<path fill-rule="evenodd" clip-rule="evenodd" d="M10.4997 2.3335C10.8218 2.3335 11.083 2.59466 11.083 2.91683V4.79671L12.457 3.63745C12.6304 3.49133 12.8728 3.45886 13.0785 3.55428C13.2844 3.64992 13.4163 3.85653 13.4163 4.0835V9.91683C13.4163 10.1438 13.2844 10.3504 13.0785 10.446C12.8728 10.5415 12.6304 10.509 12.457 10.3629L11.083 9.20304V11.0835C11.083 11.4057 10.8218 11.6668 10.4997 11.6668H1.16634C0.844175 11.6668 0.583008 11.4057 0.583008 11.0835V2.91683C0.583008 2.59466 0.844175 2.3335 1.16634 2.3335H10.4997ZM1.74967 10.5002H9.91634V3.50016H1.74967V10.5002ZM11.083 6.32284V7.67692L12.2497 8.6613V5.33846L11.083 6.32284Z" fill="#575F6E"/>
</svg>
