<svg width="18" height="18" viewBox="0 0 18 18" fill="none" xmlns="http://www.w3.org/2000/svg">
<g clip-path="url(#clip0_29890_123412)">
<path d="M7.45258 11.6252C7.38562 11.3656 7.25034 11.1288 7.0608 10.9392C6.87126 10.7497 6.63439 10.6144 6.37483 10.5474L1.77358 9.36094C1.69508 9.33866 1.62599 9.29138 1.57679 9.22627C1.52759 9.16117 1.50098 9.08179 1.50098 9.00019C1.50098 8.91858 1.52759 8.83921 1.57679 8.7741C1.62599 8.709 1.69508 8.66172 1.77358 8.63944L6.37483 7.45219C6.63429 7.38529 6.8711 7.25012 7.06063 7.06072C7.25017 6.87132 7.38551 6.6346 7.45258 6.37519L8.63908 1.77394C8.66114 1.69513 8.70837 1.62569 8.77357 1.57623C8.83878 1.52677 8.91837 1.5 9.00021 1.5C9.08205 1.5 9.16164 1.52677 9.22684 1.57623C9.29204 1.62569 9.33928 1.69513 9.36133 1.77394L10.5471 6.37519C10.614 6.63474 10.7493 6.87161 10.9389 7.06115C11.1284 7.25069 11.3653 7.38598 11.6248 7.45294L16.2261 8.63869C16.3052 8.66051 16.375 8.70769 16.4247 8.77299C16.4744 8.83829 16.5014 8.91811 16.5014 9.00019C16.5014 9.08227 16.4744 9.16208 16.4247 9.22738C16.375 9.29268 16.3052 9.33986 16.2261 9.36169L11.6248 10.5474C11.3653 10.6144 11.1284 10.7497 10.9389 10.9392C10.7493 11.1288 10.614 11.3656 10.5471 11.6252L9.36058 16.2264C9.33853 16.3052 9.2913 16.3747 9.22609 16.4241C9.16089 16.4736 9.0813 16.5004 8.99946 16.5004C8.91762 16.5004 8.83803 16.4736 8.77282 16.4241C8.70762 16.3747 8.66039 16.3052 8.63833 16.2264L7.45258 11.6252Z" stroke="#F4785E" stroke-width="1.5" stroke-linecap="round" stroke-linejoin="round"/>
<path d="M15 2.25V5.25" stroke="#F4785E" stroke-width="1.5" stroke-linecap="round" stroke-linejoin="round"/>
<path d="M16.5 3.75H13.5" stroke="#F4785E" stroke-width="1.5" stroke-linecap="round" stroke-linejoin="round"/>
<path d="M3 12.75V14.25" stroke="#F4785E" stroke-width="1.5" stroke-linecap="round" stroke-linejoin="round"/>
<path d="M3.75 13.5H2.25" stroke="#F4785E" stroke-width="1.5" stroke-linecap="round" stroke-linejoin="round"/>
</g>
<defs>
<clipPath id="clip0_29890_123412">
<rect width="18" height="18" fill="white"/>
</clipPath>
</defs>
</svg>
