<svg width="14" height="14" viewBox="0 0 14 14" fill="none" xmlns="http://www.w3.org/2000/svg">
<path fill-rule="evenodd" clip-rule="evenodd" d="M11.8225 0.599541C11.9962 0.557885 12.1796 0.598381 12.3198 0.708916C12.46 0.819484 12.5419 0.988362 12.542 1.16692V10.0337C12.5419 10.9357 11.8107 11.6669 10.9088 11.6669H9.77116C8.8852 11.6669 8.16699 10.9487 8.16699 10.0628C8.16705 9.17685 8.88524 8.45859 9.77116 8.45859H11.3753V4.27386L5.25033 5.72422V11.2004C5.25026 12.1023 4.51907 12.8335 3.61711 12.8336H2.77116C1.8852 12.8336 1.16699 12.1154 1.16699 11.2294C1.16705 10.3435 1.88524 9.62526 2.77116 9.62526H4.08366V2.91692L4.0922 2.8178C4.13123 2.59141 4.30139 2.40461 4.53084 2.34954L11.8225 0.599541ZM2.77116 10.7919C2.52957 10.7919 2.33372 10.9878 2.33366 11.2294C2.33366 11.471 2.52953 11.6669 2.77116 11.6669H3.61711C3.87474 11.6669 4.0836 11.458 4.08366 11.2004V10.7919H2.77116ZM9.77116 9.62526C9.52957 9.62526 9.33372 9.82118 9.33366 10.0628C9.33366 10.3044 9.52953 10.5003 9.77116 10.5003H10.9088C11.1664 10.5002 11.3753 10.2913 11.3753 10.0337V9.62526H9.77116ZM5.25033 3.37664V4.52508L11.3753 3.07529V1.90691L5.25033 3.37664Z" fill="#575F6E"/>
</svg>
