<svg width="12" height="12" viewBox="0 0 12 12" fill="none" xmlns="http://www.w3.org/2000/svg">
<path d="M6.58651 7.5C7.176 7.5 7.64675 7.49978 8.02597 7.52881C8.41013 7.55823 8.74343 7.61978 9.05087 7.7666C9.54343 8.00189 9.9502 8.3804 10.2071 8.85303C10.5134 9.41683 10.5001 9.92635 10.5001 11C10.5001 11.2761 10.2762 11.5 10.0001 11.5C9.72403 11.4999 9.50009 11.2761 9.50009 11C9.50009 9.83363 9.48676 9.6223 9.32821 9.33057C9.17605 9.05073 8.92983 8.81708 8.61972 8.66895C8.47089 8.59791 8.27682 8.55093 7.9498 8.52588C7.61761 8.50045 7.19153 8.5 6.58651 8.5H5.41366C4.80863 8.5 4.38256 8.50044 4.05038 8.52588C3.72336 8.55094 3.52928 8.59789 3.38046 8.66895C3.07039 8.8171 2.8241 9.05074 2.67196 9.33057C2.51345 9.62226 2.50009 9.83373 2.50009 11C2.50009 11.2761 2.27623 11.5 2.00009 11.5C1.72403 11.4999 1.50009 11.2761 1.50009 11C1.50009 9.92622 1.48661 9.41692 1.79306 8.85303C2.04994 8.38042 2.45678 8.00191 2.94931 7.7666C3.25674 7.61976 3.59006 7.55824 3.97421 7.52881C4.35342 7.49977 4.82416 7.5 5.41366 7.5H6.58651Z" fill="#F4785E"/>
<path fill-rule="evenodd" clip-rule="evenodd" d="M6.00009 0.5C7.65694 0.5 9.00009 1.84315 9.00009 3.5C9.00009 5.15685 7.65694 6.5 6.00009 6.5C4.34327 6.49995 3.00009 5.15683 3.00009 3.5C3.00009 1.84318 4.34327 0.500048 6.00009 0.5ZM6.00009 1.5C4.89556 1.50005 4.00009 2.39546 4.00009 3.5C4.00009 4.60454 4.89556 5.49995 6.00009 5.5C7.10466 5.5 8.00009 4.60457 8.00009 3.5C8.00009 2.39543 7.10466 1.5 6.00009 1.5Z" fill="#F4785E"/>
</svg>
