<svg width="14" height="14" viewBox="0 0 14 14" fill="none" xmlns="http://www.w3.org/2000/svg">
<path d="M10.8742 0.589193C11.064 0.616329 11.2308 0.735989 11.3162 0.911621C11.4016 1.08729 11.3928 1.29242 11.2969 1.4585L11.2502 1.52743L8.78352 4.66683H11.9582C12.1898 4.66686 12.3996 4.80391 12.4926 5.01603C12.5855 5.22826 12.5437 5.47583 12.3866 5.64608L5.38662 13.2294C5.20494 13.426 4.91273 13.4736 4.67797 13.3451C4.44311 13.2163 4.32612 12.9438 4.39427 12.6848L5.66006 7.87516H2.33324C2.12916 7.87513 1.93988 7.76835 1.83422 7.59375C1.72859 7.41914 1.72189 7.20203 1.81656 7.02124L5.02489 0.89624L5.06704 0.827311C5.17556 0.675618 5.35181 0.583525 5.54157 0.583496H10.7916L10.8742 0.589193Z" fill="#F5A233"/>
</svg>
