<svg width="12" height="12" viewBox="0 0 12 12" fill="none" xmlns="http://www.w3.org/2000/svg">
<g clip-path="url(#clip0_30342_333)">
<path d="M8.14648 4.14648C8.34175 3.95122 8.65825 3.95122 8.85352 4.14648C9.04874 4.34175 9.04877 4.65827 8.85352 4.85352L5.85352 7.85352C5.65827 8.04877 5.34175 8.04874 5.14648 7.85352L3.64648 6.35352C3.45122 6.15825 3.45122 5.84175 3.64648 5.64648C3.82954 5.46343 4.11904 5.45213 4.31543 5.6123L4.35352 5.64648L5.5 6.79297L8.14648 4.14648Z" fill="#509F69"/>
<path fill-rule="evenodd" clip-rule="evenodd" d="M6 0.5C7.51863 0.5 8.8944 1.11609 9.88916 2.11084C10.8839 3.10561 11.5 4.48137 11.5 6C11.5 7.51864 10.8839 8.8944 9.88916 9.88916C8.8944 10.8839 7.51864 11.5 6 11.5C4.48137 11.5 3.10561 10.8839 2.11084 9.88916C1.11609 8.8944 0.5 7.51863 0.5 6C0.5 4.48137 1.11609 3.10561 2.11084 2.11084C3.10561 1.11609 4.48137 0.5 6 0.5ZM6 1.5C4.75724 1.5 3.63277 2.00298 2.81787 2.81787C2.00298 3.63277 1.5 4.75724 1.5 6C1.5 7.24277 2.00298 8.36724 2.81787 9.18213C3.63277 9.99702 4.75724 10.5 6 10.5C7.24276 10.5 8.36724 9.99702 9.18213 9.18213C9.99702 8.36724 10.5 7.24276 10.5 6C10.5 4.75724 9.99702 3.63277 9.18213 2.81787C8.36724 2.00298 7.24277 1.5 6 1.5Z" fill="#509F69"/>
</g>
<defs>
<clipPath id="clip0_30342_333">
<rect width="12" height="12" fill="white"/>
</clipPath>
</defs>
</svg>
