<svg width="16" height="16" viewBox="0 0 16 16" fill="none" xmlns="http://www.w3.org/2000/svg">
<path fill-rule="evenodd" clip-rule="evenodd" d="M13.5107 0.684854C13.7092 0.63723 13.9188 0.683488 14.0791 0.809854C14.2394 0.936243 14.333 1.12918 14.333 1.33329V11.4668C14.3329 12.4976 13.4973 13.3332 12.4665 13.3333H11.1663C10.1538 13.3333 9.33301 12.5125 9.33301 11.5C9.33308 10.4875 10.1539 9.66663 11.1663 9.66663H12.9997V4.88407L5.99967 6.54163V12.8001C5.9996 13.8309 5.16396 14.6666 4.13314 14.6666H3.16634C2.15382 14.6666 1.33301 13.8458 1.33301 12.8333C1.33308 11.8208 2.15386 11 3.16634 11H4.66634V3.33329L4.67611 3.22001C4.72066 2.96122 4.91514 2.7478 5.17741 2.68485L13.5107 0.684854ZM5.99967 3.85868V5.17118L12.9997 3.51428V2.17899L5.99967 3.85868Z" fill="#71AB81"/>
</svg>
