<svg width="12" height="12" viewBox="0 0 12 12" fill="none" xmlns="http://www.w3.org/2000/svg">
<path d="M6.5 7.75C6.77614 7.75 7 7.97386 7 8.25C7 8.52614 6.77614 8.75 6.5 8.75H3.75C3.47386 8.75 3.25 8.52614 3.25 8.25C3.25 7.97386 3.47386 7.75 3.75 7.75H6.5Z" fill="#333E4E"/>
<path d="M8.25 5.75C8.52614 5.75 8.75 5.97386 8.75 6.25C8.75 6.52614 8.52614 6.75 8.25 6.75H3.75C3.47386 6.75 3.25 6.52614 3.25 6.25C3.25 5.97386 3.47386 5.75 3.75 5.75H8.25Z" fill="#333E4E"/>
<path fill-rule="evenodd" clip-rule="evenodd" d="M7.29932 0.502441C7.41382 0.513786 7.52144 0.564413 7.60352 0.646484L10.3535 3.39648C10.4473 3.49025 10.5 3.61739 10.5 3.75V10.5093C10.4999 10.513 10.4997 10.5177 10.4995 10.5225C10.4992 10.532 10.4985 10.5437 10.4976 10.5571C10.4956 10.5841 10.4922 10.6192 10.4854 10.6602C10.4721 10.7398 10.4447 10.8538 10.3848 10.9736C10.3239 11.0954 10.2246 11.2324 10.0664 11.3379C9.9051 11.4454 9.71249 11.5 9.5 11.5H2.5C1.94772 11.5 1.5 11.0523 1.5 10.5V1.5C1.5 0.947715 1.94772 0.5 2.5 0.5H7.25L7.29932 0.502441ZM2.5 10.5H9.49805C9.4983 10.4987 9.4988 10.4974 9.49902 10.4961C9.49952 10.4931 9.4998 10.4905 9.5 10.4888V4.75H6.75C6.61739 4.75 6.49025 4.69728 6.39648 4.60352C6.30272 4.50975 6.25 4.38261 6.25 4.25V1.5H2.5V10.5ZM7.25 3.75H9.29297L7.25 1.70703V3.75Z" fill="#333E4E"/>
</svg>
