<svg width="120" height="96" viewBox="0 0 120 96" fill="none" xmlns="http://www.w3.org/2000/svg">
  <rect x="12" y="16" width="58" height="42" rx="16" fill="#FFE9E4" stroke="#FF705D" stroke-width="3"/>
  <path d="M29 57L22 70L42 58" fill="#FFE9E4"/>
  <path d="M29 57L22 70L42 58" stroke="#FF705D" stroke-width="3" stroke-linejoin="round"/>
  <rect x="48" y="33" width="60" height="42" rx="16" fill="#F3F7FF" stroke="#2F3B4E" stroke-width="3"/>
  <path d="M89 74L99 86L83 75" fill="#F3F7FF"/>
  <path d="M89 74L99 86L83 75" stroke="#2F3B4E" stroke-width="3" stroke-linejoin="round"/>
  <circle cx="34" cy="37" r="4" fill="#FF705D"/>
  <circle cx="48" cy="37" r="4" fill="#FF705D"/>
  <circle cx="68" cy="54" r="4" fill="#2F3B4E"/>
  <circle cx="82" cy="54" r="4" fill="#2F3B4E"/>
  <path d="M86 19C92 21 97 26 99 32" stroke="#F3B43F" stroke-width="4" stroke-linecap="round"/>
  <path d="M95 13C104 17 111 24 114 34" stroke="#F3B43F" stroke-width="4" stroke-linecap="round"/>
</svg>
